<svg xmlns="http://www.w3.org/2000/svg" width="32" height="32" viewBox="0 0 32 32"><g transform="translate(1702.01 -2846.429) scale(3.77943)"><g transform="matrix(.193 0 0 .19148 -354.436 671.938)"><path style="line-height:normal;text-indent:0;text-align:start;text-decoration-line:none;text-decoration-style:solid;text-decoration-color:#000;text-transform:none;block-progression:tb;white-space:normal;isolation:auto;mix-blend-mode:normal;solid-color:#000;solid-opacity:1" fill-rule="evenodd" d="m -474.2492,429.22488 c -1.78085,0.12182 -3.80647,0.008 -5.62844,0.9527 -3.28884,1.70691 -6.94831,5.48149 -9.86181,8.84406 -2.80041,3.23205 -4.77782,5.95522 -4.93492,6.17222 a 0.68855891,0.68855891 0 0 0 -0.19815,0.78536 0.68825379,0.6882538 0 0 0 0.005,0.0162 0.68855891,0.68855891 0 0 0 0.003,0.005 0.68825379,0.6882538 0 0 0 0.10978,0.18623 l 4.67787,5.56768 c -0.29696,0.16516 -0.57953,0.31024 -0.84347,0.36974 -0.51887,0.11593 -0.99663,0.1781 -1.30669,0.081 -0.21763,-0.0684 -0.50398,-0.34125 -0.85954,-0.73408 -0.35545,-0.39272 -0.81751,-0.92686 -1.57981,-1.04984 l -0.19011,0 0.0643,-0.008 c -0.42639,-0.0354 -0.81837,0.0965 -1.138,0.45611 -0.43991,0.49821 -0.40994,1.06042 -0.38559,1.43847 0.0363,0.627 0.20019,1.35567 0.7203,1.93776 0.5901,0.65661 1.36522,0.79064 1.84223,0.96888 0.64804,0.24231 1.40239,0.56725 2.28671,0.58025 0.92489,0.0157 1.74176,-0.28861 2.45809,-0.55057 0.72225,-0.26425 1.07715,-0.65052 1.26653,-0.6828 0.32229,-0.0548 0.73074,0.0147 1.08177,0.16193 0.11504,0.047 0.28933,0.19202 0.5168,0.42912 0.22797,0.23709 0.5177,0.56893 1.00144,0.74488 0.99182,0.36034 2.01292,0.25539 2.89454,0.11334 0.65557,-0.10548 1.14995,-0.42699 1.5584,-0.65312 0.4083,-0.22613 0.70141,-0.34353 0.93183,-0.31846 0.24767,0.0261 0.52915,0.22871 0.9104,0.58295 0.38136,0.35409 0.82623,0.84667 1.53698,1.06065 0.96633,0.28774 1.9842,0.24623 2.90526,0.0405 0.78908,-0.17705 1.34953,-0.66155 1.8315,-1.00936 0.48188,-0.34782 0.84287,-0.54678 1.16479,-0.52898 0.2026,0.0104 0.43563,0.15398 0.76849,0.448 0.33265,0.29402 0.71198,0.71471 1.30401,0.96888 0.4912,0.21099 1.10121,0.46516 1.81278,0.42912 1.33655,-0.0658 2.23656,-0.87089 2.98558,-1.02016 0.471,-0.0945 0.87471,-0.15599 1.14337,-0.0918 0.2513,0.0606 0.53979,0.25765 0.89969,0.53977 0.36012,0.28201 0.78773,0.64787 1.39774,0.81504 0.5326,0.14466 1.05502,0.10724 1.50752,0.0216 0.88058,-0.16869 1.55529,-0.60313 2.15551,-0.85553 0.6224,-0.26164 1.20514,-0.55118 1.78064,-0.78536 0.37877,-0.15407 1.0356,-0.19458 1.68157,-0.65312 0.28395,-0.20263 0.8319,-0.52656 0.92112,-1.26574 0.0964,-0.75444 -0.19427,-1.48659 -0.86221,-1.90808 -0.50845,-0.32183 -0.98608,-0.28447 -1.41112,-0.19971 0.1662,-0.28108 0.17465,-0.3044 0.35612,-0.60725 0.33641,-0.56137 0.67686,-1.12033 0.93986,-1.53292 0.13149,-0.20631 0.24672,-0.37858 0.32132,-0.4831 0.0373,-0.0523 0.0672,-0.089 0.0696,-0.0918 9.4e-4,-10e-4 -0.0109,0.015 -0.0268,0.0297 0.0285,-0.0341 0.18459,-0.22635 0.18476,-0.22671 2e-4,-4e-4 0.0696,-0.25045 0.0696,-0.25099 4e-5,-5.2e-4 -3.4e-4,-0.12806 -0.008,-0.17272 -0.007,-0.0447 -0.0147,-0.0773 -0.0241,-0.10526 -0.0187,-0.0559 -0.0365,-0.0896 -0.0509,-0.11604 -0.0574,-0.10564 -0.0825,-0.12197 -0.10977,-0.15383 -0.0545,-0.0638 -0.10677,-0.117 -0.17406,-0.18352 -0.13459,-0.13304 -0.32061,-0.30602 -0.54892,-0.51548 -0.45658,-0.41895 -1.07389,-0.97503 -1.69763,-1.52754 -1.24749,-1.10506 -2.517,-2.20765 -2.517,-2.20765 a 0.68825379,0.6882538 0 0 0 -0.39897,-0.16732 l -11.88077,-0.91221 -3.2721,-4.33162 a 0.68825379,0.6882538 0 0 0 -0.53285,-0.27528 0.68825379,0.6882538 0 0 0 -0.0669,0.003 l -9.24059,0.67741 c 0.34285,-0.43886 0.70835,-0.91 1.1862,-1.47087 1.21199,-1.42257 2.77848,-3.02406 3.91473,-3.67041 1.20605,-0.68601 2.89494,-0.552 4.71535,-1.05524 0.46991,-0.1299 0.74282,-0.48312 0.8997,-0.81504 0.15689,-0.33193 0.22653,-0.67789 0.18743,-1.04176 -0.0298,-0.27767 -0.12464,-0.50634 -0.29186,-0.73137 -0.16722,-0.22504 -0.47508,-0.49795 -0.92914,-0.46691 z" color="#000" enable-background="accumulate" font-family="sans-serif" font-weight="400" overflow="visible"/><path style="line-height:normal;text-indent:0;text-align:start;text-decoration-line:none;text-decoration-style:solid;text-decoration-color:#000;text-transform:none;block-progression:tb;white-space:normal;isolation:auto;mix-blend-mode:normal;solid-color:#000;solid-opacity:1" fill-rule="evenodd" d="m -494.79219,450.4134 c 0.0424,0.004 0.0828,10e-4 0.12585,0.008 l -0.091,-0.0108 -0.0348,0.003 z" color="#000" enable-background="accumulate" font-family="sans-serif" font-weight="400" overflow="visible"/><path style="line-height:normal;text-indent:0;text-align:start;text-decoration-line:none;text-decoration-style:solid;text-decoration-color:#000;text-transform:none;block-progression:tb;white-space:normal;isolation:auto;mix-blend-mode:normal;solid-color:#000;solid-opacity:1" fill="#fd982f" fill-rule="evenodd" d="m -474.40719,430.61208 c -0.002,0.0695 -0.0123,0.18288 -0.0509,0.26449 -0.0226,0.0478 -0.0454,0.0717 -0.0535,0.081 -1.49359,0.40433 -3.31876,0.22623 -4.99918,1.18209 -1.47965,0.84166 -3.03208,2.50296 -4.28425,3.97268 -1.06141,1.2458 -1.75816,2.18991 -1.98415,2.49911 l -1.85293,0.13764 c 2.68169,-2.97485 5.82022,-6.01836 8.3891,-7.35161 1.32674,-0.68859 3.04405,-0.67619 4.83584,-0.78536 z" color="#000" enable-background="accumulate" font-family="sans-serif" font-weight="400" overflow="visible"/><path style="line-height:normal;text-indent:0;text-align:start;text-decoration-line:none;text-decoration-style:solid;text-decoration-color:#000;text-transform:none;block-progression:tb;white-space:normal;isolation:auto;mix-blend-mode:normal;solid-color:#000;solid-opacity:1" fill="#ffe625" fill-rule="evenodd" d="m -474.96414,439.19976 3.23461,4.28035 a 0.68825379,0.6882538 0 0 0 0.49537,0.27258 l 11.96377,0.9176 c 0.15401,0.1342 1.17731,1.02569 2.33491,2.05111 0.32087,0.28423 0.57271,0.51532 0.86757,0.77997 l -36.80975,-2.38038 c 0.57436,-0.78183 1.83247,-2.45851 3.92544,-4.89568 l 13.98808,-1.02555 z" color="#000" enable-background="accumulate" font-family="sans-serif" font-weight="400" overflow="visible"/><path style="line-height:normal;text-indent:0;text-align:start;text-decoration-line:none;text-decoration-style:solid;text-decoration-color:#000;text-transform:none;block-progression:tb;white-space:normal;isolation:auto;mix-blend-mode:normal;solid-color:#000;solid-opacity:1" fill="#fc3275" fill-rule="evenodd" d="m -492.68488,446.51089 37.38545,2.42085 c -0.25726,0.40858 -0.54891,0.88133 -0.84882,1.3818 -0.64232,1.0719 -1.19786,2.02923 -1.26384,2.14287 -0.38608,0.25534 -0.70642,0.49515 -1.01216,0.58565 -0.43214,0.12795 -0.83569,0.19334 -1.08445,0.13225 -0.0518,-0.0104 -0.14454,-0.0653 -0.30257,-0.19432 -0.15804,-0.12899 -0.36574,-0.31946 -0.67745,-0.47769 -0.5838,-0.29663 -1.2457,-0.62966 -2.01629,-0.75568 -0.47461,-0.0752 -1.01527,-0.0995 -1.56641,0.0729 -0.75645,0.23866 -1.13116,0.73641 -1.39775,0.87711 -0.52441,0.27575 -0.96068,0.51838 -1.31473,0.56135 -0.23265,0.0261 -0.51873,-0.0176 -0.7792,-0.12414 l -0.0107,0 c -0.46374,-0.18539 -0.93186,-0.8112 -1.79135,-1.27385 -0.45442,-0.24493 -1.04017,-0.65605 -1.83153,-0.6936 -0.86788,-0.0366 -1.57552,0.34474 -2.14479,0.62074 -0.37255,0.18069 -0.62401,0.42777 -0.82205,0.60184 -0.19794,0.1739 -0.33326,0.27581 -0.43378,0.30766 l -0.0107,0 c -0.15648,0.0522 -0.42517,0.0359 -0.75777,-0.0216 -0.4368,-0.0778 -0.92078,-0.32733 -1.4995,-0.57216 -0.46995,-0.19896 -1.0419,-0.72105 -1.93326,-0.896 -0.48343,-0.0945 -0.97296,-0.0475 -1.41648,0.081 -0.54183,0.15772 -0.91798,0.46902 -1.2344,0.7044 -0.31659,0.23553 -0.56585,0.38411 -0.76849,0.42641 -0.35183,0.0736 -0.82199,0.006 -1.29598,-0.14034 -0.59779,-0.18539 -1.24224,-0.98206 -2.38847,-1.31703 -0.63723,-0.18591 -1.32574,-0.23791 -2.0029,-0.12145 -0.33384,0.0575 -0.63777,0.15233 -0.91843,0.26719 l -3.86119,-4.59611 z" color="#000" enable-background="accumulate" font-family="sans-serif" font-weight="400" overflow="visible"/><path style="line-height:normal;text-indent:0;text-align:start;text-decoration-line:none;text-decoration-style:solid;text-decoration-color:#000;text-transform:none;block-progression:tb;white-space:normal;isolation:auto;mix-blend-mode:normal;solid-color:#000;solid-opacity:1" fill-rule="evenodd" d="M-453.71426 448.97763c-.016.0122-.0244.0199-.0562.0378-.0273.0153-.0637.0342-.11515.0513-.008.003-.0183.005-.0268.008.0153-.007.15113-.0743.19814-.0971zM-453.93918 449.08017c-.0126.003-.0233.008-.0375.0108-.0352.006-.12116.008-.12049.008.0419 0 .13638-.0152.15797-.0189z" color="#000" enable-background="accumulate" font-family="sans-serif" font-weight="400" overflow="visible"/><path style="line-height:normal;text-indent:0;text-align:start;text-decoration-line:none;text-decoration-style:solid;text-decoration-color:#000;text-transform:none;block-progression:tb;white-space:normal;isolation:auto;mix-blend-mode:normal;solid-color:#000;solid-opacity:1" fill="#00a1f1" fill-rule="evenodd" d="m -494.90733,451.78711 c -0.0518,0.0574 0.0574,0.005 0.0294,0 0.20208,0.0313 0.4409,0.23934 0.7792,0.61263 0.33835,0.37341 0.74527,0.89919 1.45933,1.12271 0.74618,0.23397 1.45337,0.0832 2.0136,-0.0432 1.32412,-0.2982 2.16635,-1.15095 2.94274,-1.28464 0.44249,-0.0757 0.94467,-0.0306 1.39774,0.10255 0.59451,0.17392 1.23309,0.94397 2.36704,1.29544 0.57463,0.17809 1.26268,0.33445 1.98415,0.18352 0.56767,-0.11855 0.9668,-0.42977 1.29598,-0.67471 0.32903,-0.24492 0.59538,-0.42686 0.80866,-0.48848 0.25389,-0.0742 0.53956,-0.0951 0.77117,-0.0513 0.41244,0.081 0.90516,0.49673 1.65746,0.81505 0.50209,0.21254 1.08205,0.53601 1.80206,0.66391 0.38498,0.0658 0.87344,0.13734 1.40577,-0.0324 0.42385,-0.13369 0.71043,-0.38581 0.93183,-0.58025 0.22125,-0.19428 0.38483,-0.34093 0.50608,-0.39942 0.5724,-0.27784 1.09657,-0.49388 1.49948,-0.4777 0.31038,0.0157 0.72829,0.24139 1.24244,0.51817 0.47981,0.258 0.98765,0.96497 1.93327,1.34672 0.4399,0.17653 0.94765,0.27962 1.46735,0.21591 0.75447,-0.0919 1.3214,-0.47276 1.78332,-0.71519 0.63188,-0.33371 0.94594,-0.7171 1.16211,-0.78535 0.25389,-0.0794 0.59637,-0.0775 0.95057,-0.0216 0.50725,0.083 1.04086,0.33442 1.60927,0.62343 0.0886,0.047 0.22989,0.15544 0.42574,0.31577 0.19586,0.1598 0.46569,0.37558 0.8515,0.46959 0.68287,0.16764 1.29685,-0.006 1.78867,-0.15384 1.15501,-0.34206 1.82524,-1.11116 2.43935,-1.26574 0.49327,-0.12429 0.89698,-0.15139 0.96128,-0.11066 0.10051,0.0637 0.26231,0.43386 0.24367,0.57215 l 0,0.008 c 0.0104,-0.082 -0.0973,0.1073 -0.36417,0.29688 -0.24818,0.17651 -0.76865,0.25052 -1.40577,0.51008 -0.63094,0.25693 -1.21424,0.54251 -1.79135,0.78536 -0.73856,0.31072 -1.33367,0.65874 -1.8824,0.76376 -0.33213,0.0632 -0.65481,0.075 -0.89166,0.0108 -0.25543,-0.07 -0.55618,-0.28336 -0.9211,-0.56945 -0.36477,-0.28566 -0.79549,-0.64695 -1.41649,-0.79615 -0.664,-0.15928 -1.26156,-0.0109 -1.72976,0.081 -1.25593,0.25015 -2.09045,0.9665 -2.79279,0.99856 -0.32074,0.0157 -0.7479,-0.1194 -1.20495,-0.31576 -0.24716,-0.10602 -0.55952,-0.39556 -0.94254,-0.73408 -0.38291,-0.33841 -0.8886,-0.75547 -1.59855,-0.79616 -0.85812,-0.047 -1.50866,0.40725 -2.03236,0.78536 -0.52368,0.3781 -0.96293,0.6959 -1.32543,0.77726 -0.74141,0.1666 -1.54859,0.18661 -2.2171,-0.0108 l -0.0107,0 c -0.2684,-0.083 -0.59812,-0.37053 -1.00144,-0.74488 -0.40623,-0.37706 -0.91979,-0.86387 -1.6896,-0.94998 -0.71183,-0.0783 -1.28633,0.22918 -1.74049,0.48038 -0.45389,0.2512 -0.8237,0.46569 -1.10319,0.51009 -0.80287,0.1295 -1.6059,0.15988 -2.2171,-0.0621 -0.10777,-0.0418 -0.26444,-0.16694 -0.48466,-0.39673 -0.22073,-0.22926 -0.49623,-0.54798 -0.96128,-0.74488 -0.55565,-0.23552 -1.1948,-0.35578 -1.84223,-0.24558 -0.83343,0.14205 -1.25533,0.64179 -1.50752,0.73408 -0.70752,0.25903 -1.3785,0.48979 -1.97343,0.48038 -0.53405,-0.0104 -1.15134,-0.24495 -1.83152,-0.49928 -0.61959,-0.23135 -1.12099,-0.38495 -1.30669,-0.59374 -0.20053,-0.22404 -0.3265,-0.65717 -0.35346,-1.10113 l 0,-0.0108 c -0.0154,-0.26051 0.0439,-0.44137 0.0295,-0.42371 z" color="#000" enable-background="accumulate" font-family="sans-serif" font-weight="400" overflow="visible"/><path fill="none" stroke="#000" stroke-linecap="round" stroke-linejoin="round" stroke-width=".688" d="M-475.76774 439.35135l-2.27375 1.79145M-475.21653 440.07482l-2.82496 2.34266M-474.49306 440.90164l-3.41063 2.72163M-473.80403 441.79737l-2.85943 2.20486M-473.28727 442.58974l-2.20485 1.72254M-472.70159 443.41656l-1.65364 1.30914M-471.66807 443.86442l-1.41248.99908"/></g><path style="line-height:normal;text-indent:0;text-align:start;text-decoration-line:none;text-decoration-style:solid;text-decoration-color:#000;text-transform:none;block-progression:tb;white-space:normal;isolation:auto;mix-blend-mode:normal;solid-color:#000;solid-opacity:1" fill-rule="evenodd" d="m -450.06055,759.27734 -0.043,0.0254 0.0899,-0.0176 -0.0469,-0.008 z" color="#000" enable-background="accumulate" font-family="sans-serif" font-weight="400" overflow="visible"/><path style="line-height:normal;text-indent:0;text-align:start;text-decoration-line:none;text-decoration-style:solid;text-decoration-color:#000;text-transform:none;block-progression:tb;white-space:normal;isolation:auto;mix-blend-mode:normal;solid-color:#000;solid-opacity:1" fill-rule="evenodd" d="m -450.01365,759.28534 c -0.0919,-0.0147 -0.17633,0.008 -0.24414,0.084 -0.0849,0.0954 -0.0789,0.20496 -0.0742,0.27734 0.007,0.12008 0.0365,0.25962 0.13672,0.3711 0.11407,0.12718 0.26496,0.14932 0.35742,0.18359 0.12507,0.0464 0.27073,0.11079 0.44141,0.11328 0.17849,0.003 0.33635,-0.0572 0.4746,-0.10742 0.13937,-0.0506 0.20759,-0.12272 0.24415,-0.12891 0.0621,-0.0105 0.14122,8e-4 0.20898,0.0293 0.0222,0.009 0.0537,0.0386 0.0977,0.084 0.044,0.0454 0.10191,0.10694 0.19531,0.14062 0.19144,0.0689 0.38861,0.0504 0.55859,0.0234 0.12653,-0.0202 0.22195,-0.0837 0.30078,-0.12695 0.0788,-0.0433 0.13327,-0.0654 0.17774,-0.0606 0.0479,0.005 0.10221,0.0455 0.17578,0.11328 0.0736,0.0678 0.16171,0.16015 0.29883,0.20117 0.18649,0.0551 0.38278,0.0474 0.56054,0.008 0.15229,-0.0339 0.26051,-0.12675 0.35352,-0.19335 0.093,-0.0666 0.16248,-0.10302 0.22461,-0.0996 0.0391,0.002 0.0842,0.0296 0.14844,0.0859 0.0642,0.0563 0.13769,0.13688 0.25195,0.18555 0.0948,0.0404 0.21033,0.0889 0.34766,0.082 0.25925,-0.0117 0.43312,-0.16859 0.57812,-0.19726 0.0909,-0.0181 0.16886,-0.028 0.2207,-0.0156 0.0485,0.0116 0.10437,0.0495 0.17383,0.10352 0.0695,0.054 0.15181,0.12229 0.26953,0.15429 0.1028,0.0278 0.20369,0.0204 0.29102,0.004 0.16992,-0.0323 0.30017,-0.11573 0.41602,-0.16406 0.12011,-0.0502 0.23268,-0.1036 0.34374,-0.14844 0.0731,-0.0295 0.19956,-0.0391 0.32422,-0.12695 0.0549,-0.0388 0.16051,-0.10065 0.17774,-0.24219 0.0186,-0.14447 -0.039,-0.28452 -0.16797,-0.36524 -0.14831,-0.0916 -0.2995,-0.034 -0.38867,-0.0117 -0.22867,0.0571 -0.36014,0.21075 -0.48047,0.24609 -0.0834,0.0245 -0.16097,0.0371 -0.20899,0.0254 -0.01,-0.002 -0.03,-0.0124 -0.0605,-0.0371 -0.0305,-0.0247 -0.0688,-0.0635 -0.12891,-0.0937 -0.11267,-0.0568 -0.23997,-0.11846 -0.38867,-0.14258 -0.0916,-0.0144 -0.19636,-0.0213 -0.30274,0.0117 -0.14597,0.0457 -0.21808,0.14298 -0.26953,0.16992 -0.10121,0.0528 -0.18557,0.0992 -0.2539,0.10742 -0.0449,0.005 -0.10207,-0.003 -0.15235,-0.0234 -0.0895,-0.0355 -0.17982,-0.15751 -0.3457,-0.2461 -0.0877,-0.0469 -0.20078,-0.12367 -0.35352,-0.13086 -0.1675,-0.007 -0.30615,0.0663 -0.41601,0.11915 -0.0719,0.0346 -0.11803,0.0819 -0.15625,0.11523 -0.0382,0.0333 -0.0665,0.0506 -0.0859,0.0566 -0.0302,0.01 -0.0825,0.009 -0.14648,-0.002 -0.0843,-0.0149 -0.17735,-0.0625 -0.28906,-0.10938 -0.0907,-0.0381 -0.20101,-0.13837 -0.37305,-0.17187 -0.0933,-0.0181 -0.18784,-0.0111 -0.27344,0.0137 -0.10457,0.0302 -0.17722,0.0897 -0.23828,0.13476 -0.0611,0.0451 -0.10932,0.0759 -0.14844,0.084 -0.0679,0.0141 -0.15852,7.7e-4 -0.25,-0.0273 -0.11537,-0.0355 -0.23971,-0.18781 -0.46094,-0.25195 -0.12228,-0.0355 -0.2565,-0.0474 -0.38671,-0.0254 l -0.002,0 c -0.26099,0.0454 -0.4282,0.21409 -0.58008,0.24805 -0.10012,0.0222 -0.1921,0.0323 -0.25195,0.0137 -0.042,-0.0131 -0.0974,-0.0655 -0.16601,-0.14062 -0.0686,-0.0752 -0.15757,-0.17567 -0.30469,-0.19922 z" color="#000" enable-background="accumulate" font-family="sans-serif" font-weight="400" overflow="visible"/><path style="line-height:normal;text-indent:0;text-align:start;text-decoration-line:none;text-decoration-style:solid;text-decoration-color:#000;text-transform:none;block-progression:tb;white-space:normal;isolation:auto;mix-blend-mode:normal;solid-color:#000;solid-opacity:1" fill="#00a1f1" fill-rule="evenodd" d="m -450.06055,759.5451 c -0.01,0.011 0.0114,0.003 0.006,0.002 0.039,0.006 0.0851,0.0457 0.15039,0.11718 0.0653,0.0715 0.14345,0.17205 0.28125,0.21485 0.14402,0.0448 0.28056,0.0142 0.38867,-0.01 0.25556,-0.0571 0.41852,-0.21854 0.56836,-0.24414 0.0852,-0.0146 0.18202,-0.008 0.26954,0.0176 0.11473,0.0333 0.23818,0.1827 0.45703,0.25 0.1109,0.0341 0.24356,0.0641 0.38281,0.0352 0.10955,-0.0227 0.18646,-0.0839 0.25,-0.13085 0.0635,-0.0469 0.11508,-0.0819 0.15625,-0.0938 0.049,-0.0142 0.10375,-0.0165 0.14844,-0.008 0.0796,0.0155 0.1751,0.0953 0.32031,0.15625 0.0969,0.0407 0.20869,0.10051 0.34766,0.125 0.0742,0.0126 0.1687,0.0285 0.27148,-0.004 0.0818,-0.0256 0.13695,-0.0741 0.17969,-0.11133 0.0427,-0.0372 0.0743,-0.0649 0.0976,-0.0762 0.11048,-0.0532 0.21131,-0.0968 0.28907,-0.0937 0.0599,0.003 0.14102,0.0485 0.24023,0.10156 0.0929,0.0496 0.1893,0.18489 0.37305,0.25781 0.0849,0.0338 0.1829,0.0512 0.2832,0.0391 0.14561,-0.0176 0.2546,-0.0883 0.34375,-0.13476 0.12195,-0.0639 0.18288,-0.13732 0.22461,-0.15039 0.0485,-0.0151 0.11405,-0.0163 0.18164,-0.006 0.0979,0.0159 0.20281,0.0638 0.3125,0.11914 0.0171,0.009 0.0442,0.0319 0.082,0.0625 0.0378,0.0306 0.0896,0.0718 0.16406,0.0898 0.13179,0.0321 0.25076,-10e-4 0.34571,-0.0293 0.2229,-0.0655 0.35217,-0.21453 0.4707,-0.24414 0.0952,-0.0238 0.17116,-0.0273 0.18359,-0.0195 l 0.002,0 c 0.0194,0.0122 0.0505,0.081 0.0469,0.10743 l 0,0.002 0,0.002 c 0.002,-0.0157 -0.0189,0.0203 -0.0703,0.0566 l 0,-0.002 c -0.0479,0.0338 -0.14852,0.048 -0.27148,0.0977 -0.12176,0.0491 -0.23433,0.10389 -0.34571,0.15039 -0.14253,0.0595 -0.25738,0.12832 -0.36328,0.14843 -0.0641,0.0121 -0.12617,0.0143 -0.17187,0.002 -0.0493,-0.0134 -0.1073,-0.0546 -0.17774,-0.10938 -0.0704,-0.0547 -0.15359,-0.12377 -0.27344,-0.15234 -0.12815,-0.0305 -0.24362,-0.002 -0.33398,0.0156 -0.2424,0.0479 -0.40352,0.18527 -0.53906,0.19141 -0.0619,0.003 -0.14423,-0.0249 -0.23242,-0.0625 -0.0477,-0.0203 -0.10773,-0.0758 -0.18164,-0.14063 -0.0739,-0.0648 -0.17157,-0.14259 -0.3086,-0.15039 -0.16561,-0.009 -0.29151,0.0761 -0.39258,0.14844 -0.10106,0.0724 -0.18589,0.1348 -0.25586,0.15039 -0.14309,0.0319 -0.29873,0.0358 -0.42773,-0.002 l -0.002,0 c -0.0519,-0.016 -0.11551,-0.0728 -0.19336,-0.14453 -0.0784,-0.0722 -0.17762,-0.1632 -0.32618,-0.17969 -0.13738,-0.015 -0.24828,0.0417 -0.33593,0.0898 -0.0876,0.0481 -0.15896,0.0891 -0.21289,0.0977 -0.1551,0.0246 -0.3098,0.0327 -0.42774,-0.01 -0.0208,-0.008 -0.0512,-0.0322 -0.0937,-0.0762 -0.0426,-0.0439 -0.0958,-0.10683 -0.18554,-0.14453 -0.10724,-0.0451 -0.2324,-0.0681 -0.35743,-0.0469 -0.16084,0.0272 -0.24035,0.12489 -0.28906,0.14257 -0.13655,0.0496 -0.26601,0.0916 -0.38086,0.0898 -0.10307,-0.002 -0.22222,-0.047 -0.35351,-0.0957 -0.11959,-0.0443 -0.21611,-0.0733 -0.25196,-0.11328 -0.0388,-0.0431 -0.0632,-0.12593 -0.0684,-0.21093 -0.003,-0.0502 0.009,-0.0879 0.006,-0.084 z" color="#000" enable-background="accumulate" font-family="sans-serif" font-weight="400" overflow="visible"/></g></svg>